<mxfile host="app.diagrams.net" modified="2023-05-23T03:25:08.472Z" agent="Mozilla/5.0 (Windows NT 10.0; Win64; x64) AppleWebKit/537.36 (KHTML, like Gecko) Chrome/113.0.0.0 Safari/537.36" version="21.3.2" etag="fgsXgVsk8yUQJeJ2n-I8" type="github">
  <diagram name="Page-1" id="3TUds5FlZWGHVF5qfYok">
    <mxGraphModel>
      <root>
        <mxCell id="0" />
        <mxCell id="1" parent="0" />
      </root>
    </mxGraphModel>
  </diagram>
</mxfile>
